<svg width="241" height="207" viewBox="0 0 241 207" fill="none" xmlns="http://www.w3.org/2000/svg">
<path d="M75.9324 0.346565C78.9472 -0.736839 82.2777 0.804579 83.372 3.78962C87.2834 14.4597 95.0557 33.6812 106.407 49.2802C111.755 56.6286 117.572 62.751 123.846 66.925C127.302 64.0157 130.651 61.4423 133.751 59.4128C164.37 39.3644 200.263 25.2773 233.189 13.2915C235.706 12.3754 238.529 13.2848 240.02 15.4917C241.511 17.6987 241.281 20.6293 239.465 22.5828C225.245 37.8765 210.069 51.7933 194.899 62.5508C179.791 73.2648 164.344 81.0931 149.614 83.7613C140.77 85.3631 132.708 84.064 125.445 80.9069C121.361 84.6523 117.138 88.7957 113.019 93.017C111.367 94.7091 109.744 96.4024 108.164 98.0735C114.394 122.412 106.184 145.9 100.956 158.04C102.266 159.976 103.937 162.444 105.306 164.597C107.589 168.185 110.067 172.434 111.458 176.336C113.071 180.859 115.036 187.598 116.551 193.051L214.302 146.326C202.835 137.249 187.308 126.102 171.007 119.346C158.973 114.358 147.359 111.051 125.434 107.748C122.263 107.27 120.084 104.338 120.566 101.198C121.049 98.0589 124.01 95.901 127.181 96.3786C149.778 99.7834 162.36 103.296 175.491 108.739C197.185 117.73 217.13 133.58 228.748 143.166C230.264 144.418 231.035 146.346 230.794 148.286C230.553 150.226 229.332 151.912 227.555 152.762L115.282 206.428C113.715 207.177 111.892 207.191 110.314 206.466C108.735 205.742 107.569 204.354 107.134 202.686C105.842 197.731 102.735 186.419 100.505 180.164C99.5734 177.549 97.6969 174.212 95.4789 170.725C93.0892 166.968 91.2731 164.471 89.4826 161.713C88.4206 160.077 88.2654 158.021 89.0705 156.247C93.4771 146.539 100.62 128.252 98.339 108.784C95.2303 112.275 92.5975 115.332 90.6764 117.633L68.4881 146.29C67.2468 147.893 65.2465 148.734 63.2196 148.505C57.4145 147.848 47.7613 146.672 39.3224 147.552C30.6762 148.453 21.0532 151.496 18.567 152.726C16.8426 153.58 14.8021 153.531 13.1218 152.595C11.4416 151.659 10.3405 149.958 10.1823 148.055L0.0196069 25.8686C-0.134705 24.0124 0.628687 22.1967 2.06783 20.9974C3.50699 19.7982 5.44372 19.3639 7.26447 19.8313C18.6809 22.7619 35.8371 29.3062 52.6741 38.5805C69.4407 47.8159 86.5085 60.0933 97.1471 74.7489C99.8182 78.4285 102.011 82.1685 103.789 85.9297C104.081 85.6287 104.373 85.3267 104.667 85.0256C108.013 81.5971 111.515 78.1271 115.03 74.8172C108.069 69.6646 102.046 62.9588 96.9846 56.0035C84.6577 39.0643 76.4479 18.605 72.455 7.71277C71.3608 4.72773 72.9176 1.43002 75.9324 0.346565ZM21.1332 139.618C26.0777 138.147 32.3181 136.719 38.1069 136.116C46.3537 135.256 55.3175 136.06 61.2687 136.713L81.5317 110.544L81.6631 110.38C84.7167 106.72 89.4775 101.247 95.0847 95.1508C93.3623 90.5255 90.9599 85.9296 87.7161 81.4609C78.5285 68.8043 63.1724 57.5227 47.0276 48.6298C34.6226 41.7968 22.1168 36.5734 12.2919 33.3218L21.1332 139.618ZM212.228 33.4734C187.22 43.2749 162.18 54.5856 140.157 69.0055C138.747 69.9286 137.255 70.9986 135.7 72.1912C139.502 73.0587 143.443 73.1875 147.523 72.4485C159.892 70.2081 173.725 63.4216 188.137 53.2015C196.15 47.5185 204.236 40.8484 212.228 33.4734Z" fill="white"/>
</svg>
